<mxfile host="app.diagrams.net" modified="2020-10-09T12:12:04.011Z" agent="5.0 (Windows NT 10.0; Win64; x64) AppleWebKit/537.36 (KHTML, like Gecko) Chrome/85.0.4183.121 Safari/537.36" etag="aMQkS4kjM64JmTDGZKrH" version="13.7.9" type="github" pages="2">
  <diagram id="we14fcO_ibnNhc2jqgIF" name="Page-1">
    <mxGraphModel dx="1287" dy="713" grid="1" gridSize="10" guides="1" tooltips="1" connect="1" arrows="1" fold="1" page="1" pageScale="1" pageWidth="827" pageHeight="1169" math="0" shadow="0">
      <root>
        <mxCell id="0" />
        <mxCell id="1" parent="0" />
        <mxCell id="new_XckxPWkDHHhrYv5X-27" style="edgeStyle=orthogonalEdgeStyle;rounded=0;orthogonalLoop=1;jettySize=auto;html=1;" parent="1" source="AqY9Y-wzEiTEmSYXW-ki-1" target="qgAJWOxvSjd6XLd1FfgR-4" edge="1">
          <mxGeometry relative="1" as="geometry" />
        </mxCell>
        <mxCell id="new_XckxPWkDHHhrYv5X-28" style="edgeStyle=orthogonalEdgeStyle;rounded=0;orthogonalLoop=1;jettySize=auto;html=1;entryX=0.5;entryY=0;entryDx=0;entryDy=0;" parent="1" source="AqY9Y-wzEiTEmSYXW-ki-1" target="AqY9Y-wzEiTEmSYXW-ki-2" edge="1">
          <mxGeometry relative="1" as="geometry" />
        </mxCell>
        <mxCell id="AqY9Y-wzEiTEmSYXW-ki-1" value="Start" style="rounded=1;whiteSpace=wrap;html=1;" parent="1" vertex="1">
          <mxGeometry x="-473" y="349" width="120" height="60" as="geometry" />
        </mxCell>
        <mxCell id="new_XckxPWkDHHhrYv5X-32" style="edgeStyle=orthogonalEdgeStyle;rounded=0;orthogonalLoop=1;jettySize=auto;html=1;entryX=0.5;entryY=0;entryDx=0;entryDy=0;" parent="1" source="AqY9Y-wzEiTEmSYXW-ki-2" target="new_XckxPWkDHHhrYv5X-1" edge="1">
          <mxGeometry relative="1" as="geometry">
            <Array as="points">
              <mxPoint x="-363" y="509" />
              <mxPoint x="-413" y="509" />
            </Array>
          </mxGeometry>
        </mxCell>
        <mxCell id="2fL9xPu-dTw6iTjDpC6E-15" style="edgeStyle=orthogonalEdgeStyle;rounded=0;orthogonalLoop=1;jettySize=auto;html=1;endArrow=classic;endFill=1;" parent="1" source="AqY9Y-wzEiTEmSYXW-ki-2" target="2fL9xPu-dTw6iTjDpC6E-5" edge="1">
          <mxGeometry relative="1" as="geometry" />
        </mxCell>
        <mxCell id="AqY9Y-wzEiTEmSYXW-ki-2" value="Data from&amp;nbsp;&lt;br&gt;Smart Concents" style="shape=parallelogram;perimeter=parallelogramPerimeter;whiteSpace=wrap;html=1;fixedSize=1;" parent="1" vertex="1">
          <mxGeometry x="-423" y="449" width="120" height="50" as="geometry" />
        </mxCell>
        <mxCell id="AqY9Y-wzEiTEmSYXW-ki-17" value="Print to Web" style="rounded=0;whiteSpace=wrap;html=1;" parent="1" vertex="1">
          <mxGeometry x="-543" y="759" width="120" height="60" as="geometry" />
        </mxCell>
        <mxCell id="AqY9Y-wzEiTEmSYXW-ki-18" value="Print to Application" style="rounded=0;whiteSpace=wrap;html=1;" parent="1" vertex="1">
          <mxGeometry x="-403" y="759" width="120" height="60" as="geometry" />
        </mxCell>
        <mxCell id="new_XckxPWkDHHhrYv5X-29" style="edgeStyle=orthogonalEdgeStyle;rounded=0;orthogonalLoop=1;jettySize=auto;html=1;entryX=0;entryY=0.667;entryDx=0;entryDy=0;entryPerimeter=0;" parent="1" source="qgAJWOxvSjd6XLd1FfgR-4" target="AqY9Y-wzEiTEmSYXW-ki-17" edge="1">
          <mxGeometry relative="1" as="geometry">
            <mxPoint x="-553" y="799" as="targetPoint" />
            <Array as="points">
              <mxPoint x="-573" y="474" />
              <mxPoint x="-573" y="799" />
            </Array>
          </mxGeometry>
        </mxCell>
        <mxCell id="new_XckxPWkDHHhrYv5X-31" style="edgeStyle=orthogonalEdgeStyle;rounded=0;orthogonalLoop=1;jettySize=auto;html=1;exitX=0.5;exitY=1;exitDx=0;exitDy=0;entryX=0.5;entryY=0;entryDx=0;entryDy=0;" parent="1" source="qgAJWOxvSjd6XLd1FfgR-4" target="new_XckxPWkDHHhrYv5X-1" edge="1">
          <mxGeometry relative="1" as="geometry">
            <Array as="points">
              <mxPoint x="-463" y="509" />
              <mxPoint x="-413" y="509" />
            </Array>
          </mxGeometry>
        </mxCell>
        <mxCell id="qgAJWOxvSjd6XLd1FfgR-4" value="Data from&amp;nbsp;&lt;br&gt;Hanjeon" style="shape=parallelogram;perimeter=parallelogramPerimeter;whiteSpace=wrap;html=1;fixedSize=1;" parent="1" vertex="1">
          <mxGeometry x="-523" y="449" width="120" height="50" as="geometry" />
        </mxCell>
        <mxCell id="new_XckxPWkDHHhrYv5X-4" style="edgeStyle=orthogonalEdgeStyle;rounded=0;orthogonalLoop=1;jettySize=auto;html=1;exitX=0.5;exitY=1;exitDx=0;exitDy=0;entryX=0.5;entryY=0;entryDx=0;entryDy=0;" parent="1" source="new_XckxPWkDHHhrYv5X-1" target="new_XckxPWkDHHhrYv5X-3" edge="1">
          <mxGeometry relative="1" as="geometry" />
        </mxCell>
        <mxCell id="new_XckxPWkDHHhrYv5X-1" value="import Data to DB" style="rounded=0;whiteSpace=wrap;html=1;" parent="1" vertex="1">
          <mxGeometry x="-473" y="529" width="120" height="60" as="geometry" />
        </mxCell>
        <mxCell id="new_XckxPWkDHHhrYv5X-11" style="edgeStyle=orthogonalEdgeStyle;rounded=0;orthogonalLoop=1;jettySize=auto;html=1;exitX=0.5;exitY=1;exitDx=0;exitDy=0;entryX=0.5;entryY=0;entryDx=0;entryDy=0;" parent="1" source="new_XckxPWkDHHhrYv5X-3" target="AqY9Y-wzEiTEmSYXW-ki-17" edge="1">
          <mxGeometry relative="1" as="geometry" />
        </mxCell>
        <mxCell id="new_XckxPWkDHHhrYv5X-26" style="edgeStyle=orthogonalEdgeStyle;rounded=0;orthogonalLoop=1;jettySize=auto;html=1;" parent="1" source="new_XckxPWkDHHhrYv5X-3" target="AqY9Y-wzEiTEmSYXW-ki-18" edge="1">
          <mxGeometry relative="1" as="geometry" />
        </mxCell>
        <mxCell id="new_XckxPWkDHHhrYv5X-3" value="Manufactuaring" style="rounded=0;whiteSpace=wrap;html=1;" parent="1" vertex="1">
          <mxGeometry x="-473" y="619" width="120" height="60" as="geometry" />
        </mxCell>
        <mxCell id="new_XckxPWkDHHhrYv5X-16" value="on live" style="text;html=1;strokeColor=none;fillColor=none;align=center;verticalAlign=middle;whiteSpace=wrap;rounded=0;rotation=-90;" parent="1" vertex="1">
          <mxGeometry x="-643" y="629" width="100" height="20" as="geometry" />
        </mxCell>
        <mxCell id="new_XckxPWkDHHhrYv5X-17" value="대기전력 데이터" style="text;html=1;strokeColor=none;fillColor=none;align=center;verticalAlign=middle;whiteSpace=wrap;rounded=0;rotation=0;" parent="1" vertex="1">
          <mxGeometry x="-300" y="449" width="100" height="20" as="geometry" />
        </mxCell>
        <mxCell id="2fL9xPu-dTw6iTjDpC6E-6" style="edgeStyle=orthogonalEdgeStyle;rounded=0;orthogonalLoop=1;jettySize=auto;html=1;" parent="1" source="2fL9xPu-dTw6iTjDpC6E-5" edge="1">
          <mxGeometry relative="1" as="geometry">
            <mxPoint x="-160" y="610" as="targetPoint" />
          </mxGeometry>
        </mxCell>
        <mxCell id="2fL9xPu-dTw6iTjDpC6E-12" style="edgeStyle=orthogonalEdgeStyle;rounded=0;orthogonalLoop=1;jettySize=auto;html=1;exitX=1;exitY=0;exitDx=0;exitDy=0;dashed=1;endArrow=none;endFill=0;" parent="1" source="2fL9xPu-dTw6iTjDpC6E-5" edge="1">
          <mxGeometry relative="1" as="geometry">
            <mxPoint x="-180" y="520" as="targetPoint" />
            <Array as="points">
              <mxPoint x="-240" y="520" />
              <mxPoint x="-190" y="520" />
            </Array>
          </mxGeometry>
        </mxCell>
        <mxCell id="2fL9xPu-dTw6iTjDpC6E-14" style="edgeStyle=orthogonalEdgeStyle;rounded=0;orthogonalLoop=1;jettySize=auto;html=1;entryX=1;entryY=0.5;entryDx=0;entryDy=0;endArrow=classic;endFill=1;" parent="1" source="2fL9xPu-dTw6iTjDpC6E-5" target="new_XckxPWkDHHhrYv5X-3" edge="1">
          <mxGeometry relative="1" as="geometry" />
        </mxCell>
        <mxCell id="2fL9xPu-dTw6iTjDpC6E-5" value="&lt;font style=&quot;font-size: 9px&quot;&gt;쓸모없는 전력이소비된다?&lt;/font&gt;" style="rhombus;whiteSpace=wrap;html=1;" parent="1" vertex="1">
          <mxGeometry x="-300" y="570" width="80" height="80" as="geometry" />
        </mxCell>
        <mxCell id="2fL9xPu-dTw6iTjDpC6E-7" value="Yes" style="text;html=1;strokeColor=none;fillColor=none;align=center;verticalAlign=middle;whiteSpace=wrap;rounded=0;" parent="1" vertex="1">
          <mxGeometry x="-230" y="589" width="40" height="20" as="geometry" />
        </mxCell>
        <mxCell id="2fL9xPu-dTw6iTjDpC6E-8" value="No" style="text;html=1;strokeColor=none;fillColor=none;align=center;verticalAlign=middle;whiteSpace=wrap;rounded=0;" parent="1" vertex="1">
          <mxGeometry x="-340" y="589" width="40" height="20" as="geometry" />
        </mxCell>
        <mxCell id="2fL9xPu-dTw6iTjDpC6E-11" value="give an warning on&amp;nbsp;&lt;br&gt;Application" style="rounded=0;whiteSpace=wrap;html=1;" parent="1" vertex="1">
          <mxGeometry x="-160" y="580" width="120" height="60" as="geometry" />
        </mxCell>
        <mxCell id="2fL9xPu-dTw6iTjDpC6E-13" value="기준 :Tv 셋톱박스 대기전력이 13.4w로 (2018)&amp;nbsp; 이 기준으로 하여 넘으면 True 넘지 않으면" style="text;html=1;fillColor=none;align=center;verticalAlign=middle;whiteSpace=wrap;rounded=0;strokeColor=#000000;dashed=1;" parent="1" vertex="1">
          <mxGeometry x="-175" y="480" width="150" height="82" as="geometry" />
        </mxCell>
      </root>
    </mxGraphModel>
  </diagram>
  <diagram id="VqIn0J1o04yH5jwhSEmT" name="Page-2">
    <mxGraphModel dx="920" dy="1524" grid="1" gridSize="10" guides="1" tooltips="1" connect="1" arrows="1" fold="1" page="1" pageScale="1" pageWidth="827" pageHeight="1169" math="0" shadow="0">
      <root>
        <mxCell id="0DIaKD-9MHfwpwyAmRbE-0" />
        <mxCell id="0DIaKD-9MHfwpwyAmRbE-1" parent="0DIaKD-9MHfwpwyAmRbE-0" />
      </root>
    </mxGraphModel>
  </diagram>
</mxfile>
